<mxfile host="Electron" modified="2022-08-12T14:32:44.748Z" agent="5.0 (Windows NT 10.0; Win64; x64) AppleWebKit/537.36 (KHTML, like Gecko) draw.io/20.2.3 Chrome/102.0.5005.167 Electron/19.0.11 Safari/537.36" etag="3y1Y9RZoiuATURAUROKm" compressed="false" version="20.2.3" type="device">
  <diagram id="gSBCW-bHjOCSsjmVE0Es" name="Page-1">
    <mxGraphModel dx="486" dy="1302" grid="1" gridSize="10" guides="1" tooltips="1" connect="1" arrows="1" fold="1" page="0" pageScale="1" pageWidth="850" pageHeight="1100" math="0" shadow="1">
      <root>
        <mxCell id="0" />
        <mxCell id="1" parent="0" />
        <mxCell id="umF9P-U2Hl-YI3VoDnQA-1" value="Produk" style="rounded=1;arcSize=10;whiteSpace=wrap;html=1;align=center;fillColor=#dae8fc;strokeColor=#6c8ebf;" parent="1" vertex="1">
          <mxGeometry x="350" y="40" width="100" height="40" as="geometry" />
        </mxCell>
        <mxCell id="umF9P-U2Hl-YI3VoDnQA-2" value="memiliki" style="shape=rhombus;perimeter=rhombusPerimeter;whiteSpace=wrap;html=1;align=center;fillColor=#f5f5f5;fontColor=#333333;strokeColor=#666666;" parent="1" vertex="1">
          <mxGeometry x="560" y="30" width="120" height="60" as="geometry" />
        </mxCell>
        <mxCell id="umF9P-U2Hl-YI3VoDnQA-3" value="" style="endArrow=none;html=1;rounded=1;" parent="1" source="umF9P-U2Hl-YI3VoDnQA-2" target="umF9P-U2Hl-YI3VoDnQA-1" edge="1">
          <mxGeometry relative="1" as="geometry">
            <mxPoint x="340" y="310" as="sourcePoint" />
            <mxPoint x="500" y="310" as="targetPoint" />
          </mxGeometry>
        </mxCell>
        <mxCell id="umF9P-U2Hl-YI3VoDnQA-4" value="N" style="resizable=0;html=1;align=right;verticalAlign=bottom;" parent="umF9P-U2Hl-YI3VoDnQA-3" connectable="0" vertex="1">
          <mxGeometry x="1" relative="1" as="geometry">
            <mxPoint x="20" as="offset" />
          </mxGeometry>
        </mxCell>
        <mxCell id="umF9P-U2Hl-YI3VoDnQA-5" value="Kategori" style="rounded=1;arcSize=10;whiteSpace=wrap;html=1;align=center;fillColor=#d5e8d4;strokeColor=#82b366;" parent="1" vertex="1">
          <mxGeometry x="570" y="-100" width="100" height="40" as="geometry" />
        </mxCell>
        <mxCell id="umF9P-U2Hl-YI3VoDnQA-6" value="" style="endArrow=none;html=1;rounded=1;" parent="1" source="umF9P-U2Hl-YI3VoDnQA-2" target="umF9P-U2Hl-YI3VoDnQA-5" edge="1">
          <mxGeometry relative="1" as="geometry">
            <mxPoint x="340" y="210" as="sourcePoint" />
            <mxPoint x="500" y="210" as="targetPoint" />
          </mxGeometry>
        </mxCell>
        <mxCell id="umF9P-U2Hl-YI3VoDnQA-7" value="1" style="resizable=0;html=1;align=right;verticalAlign=bottom;" parent="umF9P-U2Hl-YI3VoDnQA-6" connectable="0" vertex="1">
          <mxGeometry x="1" relative="1" as="geometry">
            <mxPoint y="20" as="offset" />
          </mxGeometry>
        </mxCell>
        <mxCell id="umF9P-U2Hl-YI3VoDnQA-8" value="ProdukDeskripsi" style="rounded=1;arcSize=10;whiteSpace=wrap;html=1;align=center;fillColor=#ffe6cc;strokeColor=#d79b00;" parent="1" vertex="1">
          <mxGeometry x="130" y="-100" width="100" height="40" as="geometry" />
        </mxCell>
        <mxCell id="umF9P-U2Hl-YI3VoDnQA-9" value="mempunyai" style="shape=rhombus;perimeter=rhombusPerimeter;whiteSpace=wrap;html=1;align=center;fillColor=#f5f5f5;fontColor=#333333;strokeColor=#666666;" parent="1" vertex="1">
          <mxGeometry x="120" y="30" width="120" height="60" as="geometry" />
        </mxCell>
        <mxCell id="umF9P-U2Hl-YI3VoDnQA-10" value="" style="endArrow=none;html=1;rounded=1;" parent="1" source="umF9P-U2Hl-YI3VoDnQA-9" target="umF9P-U2Hl-YI3VoDnQA-1" edge="1">
          <mxGeometry relative="1" as="geometry">
            <mxPoint x="340" y="210" as="sourcePoint" />
            <mxPoint x="500" y="210" as="targetPoint" />
          </mxGeometry>
        </mxCell>
        <mxCell id="umF9P-U2Hl-YI3VoDnQA-11" value="1" style="resizable=0;html=1;align=right;verticalAlign=bottom;" parent="umF9P-U2Hl-YI3VoDnQA-10" connectable="0" vertex="1">
          <mxGeometry x="1" relative="1" as="geometry">
            <mxPoint x="-10" as="offset" />
          </mxGeometry>
        </mxCell>
        <mxCell id="umF9P-U2Hl-YI3VoDnQA-12" value="" style="endArrow=none;html=1;rounded=1;" parent="1" source="umF9P-U2Hl-YI3VoDnQA-9" target="umF9P-U2Hl-YI3VoDnQA-8" edge="1">
          <mxGeometry relative="1" as="geometry">
            <mxPoint x="290" y="90" as="sourcePoint" />
            <mxPoint x="450" y="90" as="targetPoint" />
          </mxGeometry>
        </mxCell>
        <mxCell id="umF9P-U2Hl-YI3VoDnQA-13" value="N" style="resizable=0;html=1;align=right;verticalAlign=bottom;" parent="umF9P-U2Hl-YI3VoDnQA-12" connectable="0" vertex="1">
          <mxGeometry x="1" relative="1" as="geometry">
            <mxPoint y="20" as="offset" />
          </mxGeometry>
        </mxCell>
        <mxCell id="umF9P-U2Hl-YI3VoDnQA-14" value="Supplier" style="rounded=1;arcSize=10;whiteSpace=wrap;html=1;align=center;fillColor=#f8cecc;strokeColor=#b85450;" parent="1" vertex="1">
          <mxGeometry x="130" y="180" width="100" height="40" as="geometry" />
        </mxCell>
        <mxCell id="umF9P-U2Hl-YI3VoDnQA-15" value="mengirim" style="shape=rhombus;perimeter=rhombusPerimeter;whiteSpace=wrap;html=1;align=center;fillColor=#f5f5f5;fontColor=#333333;strokeColor=#666666;" parent="1" vertex="1">
          <mxGeometry x="310" y="170" width="120" height="60" as="geometry" />
        </mxCell>
        <mxCell id="umF9P-U2Hl-YI3VoDnQA-16" value="" style="endArrow=none;html=1;rounded=1;" parent="1" source="umF9P-U2Hl-YI3VoDnQA-15" target="umF9P-U2Hl-YI3VoDnQA-14" edge="1">
          <mxGeometry relative="1" as="geometry">
            <mxPoint x="290" y="90" as="sourcePoint" />
            <mxPoint x="450" y="90" as="targetPoint" />
          </mxGeometry>
        </mxCell>
        <mxCell id="umF9P-U2Hl-YI3VoDnQA-17" value="1" style="resizable=0;html=1;align=right;verticalAlign=bottom;" parent="umF9P-U2Hl-YI3VoDnQA-16" connectable="0" vertex="1">
          <mxGeometry x="1" relative="1" as="geometry">
            <mxPoint x="20" as="offset" />
          </mxGeometry>
        </mxCell>
        <mxCell id="umF9P-U2Hl-YI3VoDnQA-18" value="" style="endArrow=none;html=1;rounded=1;entryX=0.189;entryY=1.025;entryDx=0;entryDy=0;entryPerimeter=0;" parent="1" source="umF9P-U2Hl-YI3VoDnQA-15" target="umF9P-U2Hl-YI3VoDnQA-1" edge="1">
          <mxGeometry relative="1" as="geometry">
            <mxPoint x="260" y="20" as="sourcePoint" />
            <mxPoint x="370" y="100" as="targetPoint" />
          </mxGeometry>
        </mxCell>
        <mxCell id="umF9P-U2Hl-YI3VoDnQA-19" value="N" style="resizable=0;html=1;align=right;verticalAlign=bottom;" parent="umF9P-U2Hl-YI3VoDnQA-18" connectable="0" vertex="1">
          <mxGeometry x="1" relative="1" as="geometry">
            <mxPoint y="20" as="offset" />
          </mxGeometry>
        </mxCell>
        <mxCell id="umF9P-U2Hl-YI3VoDnQA-20" value="TransaksiDetail" style="rounded=1;arcSize=10;whiteSpace=wrap;html=1;align=center;fillColor=#fff2cc;strokeColor=#d6b656;" parent="1" vertex="1">
          <mxGeometry x="390" y="410" width="100" height="40" as="geometry" />
        </mxCell>
        <mxCell id="umF9P-U2Hl-YI3VoDnQA-21" value="membeli" style="shape=rhombus;perimeter=rhombusPerimeter;whiteSpace=wrap;html=1;align=center;fillColor=#f5f5f5;fontColor=#333333;strokeColor=#666666;" parent="1" vertex="1">
          <mxGeometry x="380" y="290" width="120" height="60" as="geometry" />
        </mxCell>
        <mxCell id="umF9P-U2Hl-YI3VoDnQA-22" value="" style="endArrow=none;html=1;rounded=1;entryX=0.898;entryY=0.985;entryDx=0;entryDy=0;entryPerimeter=0;" parent="1" source="umF9P-U2Hl-YI3VoDnQA-21" target="umF9P-U2Hl-YI3VoDnQA-1" edge="1">
          <mxGeometry relative="1" as="geometry">
            <mxPoint x="260" y="300" as="sourcePoint" />
            <mxPoint x="440" y="90" as="targetPoint" />
          </mxGeometry>
        </mxCell>
        <mxCell id="umF9P-U2Hl-YI3VoDnQA-23" value="1" style="resizable=0;html=1;align=right;verticalAlign=bottom;" parent="umF9P-U2Hl-YI3VoDnQA-22" connectable="0" vertex="1">
          <mxGeometry x="1" relative="1" as="geometry">
            <mxPoint y="21" as="offset" />
          </mxGeometry>
        </mxCell>
        <mxCell id="umF9P-U2Hl-YI3VoDnQA-24" value="" style="endArrow=none;html=1;rounded=1;" parent="1" source="umF9P-U2Hl-YI3VoDnQA-21" target="umF9P-U2Hl-YI3VoDnQA-20" edge="1">
          <mxGeometry relative="1" as="geometry">
            <mxPoint x="260" y="400" as="sourcePoint" />
            <mxPoint x="420" y="400" as="targetPoint" />
          </mxGeometry>
        </mxCell>
        <mxCell id="umF9P-U2Hl-YI3VoDnQA-25" value="N" style="resizable=0;html=1;align=right;verticalAlign=bottom;" parent="umF9P-U2Hl-YI3VoDnQA-24" connectable="0" vertex="1">
          <mxGeometry x="1" relative="1" as="geometry" />
        </mxCell>
        <mxCell id="umF9P-U2Hl-YI3VoDnQA-26" value="Transaksi" style="rounded=1;arcSize=10;whiteSpace=wrap;html=1;align=center;fillColor=#e1d5e7;strokeColor=#9673a6;" parent="1" vertex="1">
          <mxGeometry x="350" y="630" width="100" height="40" as="geometry" />
        </mxCell>
        <mxCell id="umF9P-U2Hl-YI3VoDnQA-27" value="memesan" style="shape=rhombus;perimeter=rhombusPerimeter;whiteSpace=wrap;html=1;align=center;fillColor=#f5f5f5;fontColor=#333333;strokeColor=#666666;" parent="1" vertex="1">
          <mxGeometry x="380" y="510" width="120" height="60" as="geometry" />
        </mxCell>
        <mxCell id="umF9P-U2Hl-YI3VoDnQA-28" value="" style="endArrow=none;html=1;rounded=1;" parent="1" source="umF9P-U2Hl-YI3VoDnQA-27" target="umF9P-U2Hl-YI3VoDnQA-20" edge="1">
          <mxGeometry relative="1" as="geometry">
            <mxPoint x="260" y="500" as="sourcePoint" />
            <mxPoint x="420" y="500" as="targetPoint" />
          </mxGeometry>
        </mxCell>
        <mxCell id="umF9P-U2Hl-YI3VoDnQA-29" value="N" style="resizable=0;html=1;align=right;verticalAlign=bottom;" parent="umF9P-U2Hl-YI3VoDnQA-28" connectable="0" vertex="1">
          <mxGeometry x="1" relative="1" as="geometry">
            <mxPoint y="20" as="offset" />
          </mxGeometry>
        </mxCell>
        <mxCell id="umF9P-U2Hl-YI3VoDnQA-30" value="" style="endArrow=none;html=1;rounded=1;entryX=0.9;entryY=0;entryDx=0;entryDy=0;entryPerimeter=0;" parent="1" source="umF9P-U2Hl-YI3VoDnQA-27" target="umF9P-U2Hl-YI3VoDnQA-26" edge="1">
          <mxGeometry relative="1" as="geometry">
            <mxPoint x="260" y="500" as="sourcePoint" />
            <mxPoint x="420" y="500" as="targetPoint" />
          </mxGeometry>
        </mxCell>
        <mxCell id="umF9P-U2Hl-YI3VoDnQA-31" value="1" style="resizable=0;html=1;align=right;verticalAlign=bottom;" parent="umF9P-U2Hl-YI3VoDnQA-30" connectable="0" vertex="1">
          <mxGeometry x="1" relative="1" as="geometry">
            <mxPoint as="offset" />
          </mxGeometry>
        </mxCell>
        <mxCell id="umF9P-U2Hl-YI3VoDnQA-32" value="Pegawai" style="rounded=1;arcSize=10;whiteSpace=wrap;html=1;align=center;fillColor=#b0e3e6;strokeColor=#0e8088;" parent="1" vertex="1">
          <mxGeometry x="30" y="410" width="100" height="40" as="geometry" />
        </mxCell>
        <mxCell id="umF9P-U2Hl-YI3VoDnQA-33" value="mencacat" style="shape=rhombus;perimeter=rhombusPerimeter;whiteSpace=wrap;html=1;align=center;fillColor=#f5f5f5;fontColor=#333333;strokeColor=#666666;" parent="1" vertex="1">
          <mxGeometry x="200" y="400" width="120" height="60" as="geometry" />
        </mxCell>
        <mxCell id="umF9P-U2Hl-YI3VoDnQA-36" value="" style="endArrow=none;html=1;rounded=1;" parent="1" source="umF9P-U2Hl-YI3VoDnQA-33" target="umF9P-U2Hl-YI3VoDnQA-32" edge="1">
          <mxGeometry relative="1" as="geometry">
            <mxPoint x="260" y="500" as="sourcePoint" />
            <mxPoint x="420" y="500" as="targetPoint" />
          </mxGeometry>
        </mxCell>
        <mxCell id="umF9P-U2Hl-YI3VoDnQA-37" value="1" style="resizable=0;html=1;align=right;verticalAlign=bottom;" parent="umF9P-U2Hl-YI3VoDnQA-36" connectable="0" vertex="1">
          <mxGeometry x="1" relative="1" as="geometry">
            <mxPoint x="10" as="offset" />
          </mxGeometry>
        </mxCell>
        <mxCell id="umF9P-U2Hl-YI3VoDnQA-38" value="" style="endArrow=none;html=1;rounded=1;entryX=0.105;entryY=-0.013;entryDx=0;entryDy=0;entryPerimeter=0;" parent="1" source="umF9P-U2Hl-YI3VoDnQA-33" target="umF9P-U2Hl-YI3VoDnQA-26" edge="1">
          <mxGeometry relative="1" as="geometry">
            <mxPoint x="260" y="650" as="sourcePoint" />
            <mxPoint x="370" y="650" as="targetPoint" />
            <Array as="points">
              <mxPoint x="361" y="430" />
              <mxPoint x="360" y="520" />
            </Array>
          </mxGeometry>
        </mxCell>
        <mxCell id="umF9P-U2Hl-YI3VoDnQA-39" value="N" style="resizable=0;html=1;align=right;verticalAlign=bottom;" parent="umF9P-U2Hl-YI3VoDnQA-38" connectable="0" vertex="1">
          <mxGeometry x="1" relative="1" as="geometry" />
        </mxCell>
        <mxCell id="umF9P-U2Hl-YI3VoDnQA-40" value="Pembayaran" style="rounded=1;arcSize=10;whiteSpace=wrap;html=1;align=center;fillColor=#fad9d5;strokeColor=#ae4132;" parent="1" vertex="1">
          <mxGeometry x="30" y="630" width="100" height="40" as="geometry" />
        </mxCell>
        <mxCell id="umF9P-U2Hl-YI3VoDnQA-41" value="membayar" style="shape=rhombus;perimeter=rhombusPerimeter;whiteSpace=wrap;html=1;align=center;fillColor=#f5f5f5;fontColor=#333333;strokeColor=#666666;" parent="1" vertex="1">
          <mxGeometry x="180" y="620" width="120" height="60" as="geometry" />
        </mxCell>
        <mxCell id="umF9P-U2Hl-YI3VoDnQA-42" value="" style="endArrow=none;html=1;rounded=0;" parent="1" source="umF9P-U2Hl-YI3VoDnQA-41" target="umF9P-U2Hl-YI3VoDnQA-26" edge="1">
          <mxGeometry relative="1" as="geometry">
            <mxPoint x="270" y="420" as="sourcePoint" />
            <mxPoint x="430" y="420" as="targetPoint" />
          </mxGeometry>
        </mxCell>
        <mxCell id="umF9P-U2Hl-YI3VoDnQA-43" value="1" style="resizable=0;html=1;align=right;verticalAlign=bottom;" parent="umF9P-U2Hl-YI3VoDnQA-42" connectable="0" vertex="1">
          <mxGeometry x="1" relative="1" as="geometry" />
        </mxCell>
        <mxCell id="umF9P-U2Hl-YI3VoDnQA-44" value="" style="endArrow=none;html=1;rounded=0;" parent="1" source="umF9P-U2Hl-YI3VoDnQA-41" target="umF9P-U2Hl-YI3VoDnQA-40" edge="1">
          <mxGeometry relative="1" as="geometry">
            <mxPoint x="270" y="420" as="sourcePoint" />
            <mxPoint x="430" y="420" as="targetPoint" />
          </mxGeometry>
        </mxCell>
        <mxCell id="umF9P-U2Hl-YI3VoDnQA-45" value="1" style="resizable=0;html=1;align=right;verticalAlign=bottom;" parent="umF9P-U2Hl-YI3VoDnQA-44" connectable="0" vertex="1">
          <mxGeometry x="1" relative="1" as="geometry">
            <mxPoint x="10" as="offset" />
          </mxGeometry>
        </mxCell>
        <mxCell id="umF9P-U2Hl-YI3VoDnQA-46" value="Ekspedisi" style="rounded=1;arcSize=10;whiteSpace=wrap;html=1;align=center;fillColor=#ffff88;strokeColor=#36393d;" parent="1" vertex="1">
          <mxGeometry x="790" y="630" width="100" height="40" as="geometry" />
        </mxCell>
        <mxCell id="umF9P-U2Hl-YI3VoDnQA-47" value="menggunakan" style="shape=rhombus;perimeter=rhombusPerimeter;whiteSpace=wrap;html=1;align=center;fillColor=#f5f5f5;fontColor=#333333;strokeColor=#666666;" parent="1" vertex="1">
          <mxGeometry x="560" y="620" width="120" height="60" as="geometry" />
        </mxCell>
        <mxCell id="umF9P-U2Hl-YI3VoDnQA-48" value="" style="endArrow=none;html=1;rounded=0;" parent="1" source="umF9P-U2Hl-YI3VoDnQA-47" target="umF9P-U2Hl-YI3VoDnQA-26" edge="1">
          <mxGeometry relative="1" as="geometry">
            <mxPoint x="340" y="540" as="sourcePoint" />
            <mxPoint x="500" y="540" as="targetPoint" />
          </mxGeometry>
        </mxCell>
        <mxCell id="umF9P-U2Hl-YI3VoDnQA-49" value="N" style="resizable=0;html=1;align=right;verticalAlign=bottom;" parent="umF9P-U2Hl-YI3VoDnQA-48" connectable="0" vertex="1">
          <mxGeometry x="1" relative="1" as="geometry">
            <mxPoint x="10" as="offset" />
          </mxGeometry>
        </mxCell>
        <mxCell id="umF9P-U2Hl-YI3VoDnQA-50" value="" style="endArrow=none;html=1;rounded=0;" parent="1" source="umF9P-U2Hl-YI3VoDnQA-47" target="umF9P-U2Hl-YI3VoDnQA-46" edge="1">
          <mxGeometry relative="1" as="geometry">
            <mxPoint x="650" y="540" as="sourcePoint" />
            <mxPoint x="810" y="540" as="targetPoint" />
          </mxGeometry>
        </mxCell>
        <mxCell id="umF9P-U2Hl-YI3VoDnQA-51" value="1" style="resizable=0;html=1;align=right;verticalAlign=bottom;" parent="umF9P-U2Hl-YI3VoDnQA-50" connectable="0" vertex="1">
          <mxGeometry x="1" relative="1" as="geometry">
            <mxPoint as="offset" />
          </mxGeometry>
        </mxCell>
        <mxCell id="umF9P-U2Hl-YI3VoDnQA-52" value="membayar" style="shape=rhombus;perimeter=rhombusPerimeter;whiteSpace=wrap;html=1;align=center;fillColor=#f5f5f5;fontColor=#333333;strokeColor=#666666;" parent="1" vertex="1">
          <mxGeometry x="340" y="730" width="120" height="60" as="geometry" />
        </mxCell>
        <mxCell id="umF9P-U2Hl-YI3VoDnQA-53" value="" style="endArrow=none;html=1;rounded=0;" parent="1" source="umF9P-U2Hl-YI3VoDnQA-52" target="umF9P-U2Hl-YI3VoDnQA-26" edge="1">
          <mxGeometry relative="1" as="geometry">
            <mxPoint x="410" y="570" as="sourcePoint" />
            <mxPoint x="570" y="570" as="targetPoint" />
          </mxGeometry>
        </mxCell>
        <mxCell id="umF9P-U2Hl-YI3VoDnQA-54" value="N" style="resizable=0;html=1;align=right;verticalAlign=bottom;" parent="umF9P-U2Hl-YI3VoDnQA-53" connectable="0" vertex="1">
          <mxGeometry x="1" relative="1" as="geometry">
            <mxPoint y="20" as="offset" />
          </mxGeometry>
        </mxCell>
        <mxCell id="umF9P-U2Hl-YI3VoDnQA-55" value="Pembeli" style="rounded=1;arcSize=10;whiteSpace=wrap;html=1;align=center;fillColor=#cce5ff;strokeColor=#36393d;" parent="1" vertex="1">
          <mxGeometry x="350" y="850" width="100" height="40" as="geometry" />
        </mxCell>
        <mxCell id="umF9P-U2Hl-YI3VoDnQA-56" value="" style="endArrow=none;html=1;rounded=0;" parent="1" source="umF9P-U2Hl-YI3VoDnQA-52" target="umF9P-U2Hl-YI3VoDnQA-55" edge="1">
          <mxGeometry relative="1" as="geometry">
            <mxPoint x="410" y="780" as="sourcePoint" />
            <mxPoint x="570" y="780" as="targetPoint" />
          </mxGeometry>
        </mxCell>
        <mxCell id="umF9P-U2Hl-YI3VoDnQA-57" value="1" style="resizable=0;html=1;align=right;verticalAlign=bottom;" parent="umF9P-U2Hl-YI3VoDnQA-56" connectable="0" vertex="1">
          <mxGeometry x="1" relative="1" as="geometry" />
        </mxCell>
      </root>
    </mxGraphModel>
  </diagram>
</mxfile>
